<svg xmlns="http://www.w3.org/2000/svg" version="1.1" xmlns:xlink="http://www.w3.org/1999/xlink" width="480" height="480"><svg xmlns="http://www.w3.org/2000/svg" version="1.1" xmlns:xlink="http://www.w3.org/1999/xlink" width="480" height="480"><svg width="480" height="480" viewBox="0 0 480 480" fill="none" xmlns="http://www.w3.org/2000/svg">
<path d="M106.029 0.331224C107.826 0.324872 107.826 0.324872 109.658 0.318391C113.644 0.306097 117.63 0.303867 121.616 0.301732C124.485 0.295129 127.354 0.287967 130.223 0.280288C138 0.261638 145.777 0.252406 153.554 0.246064C158.42 0.241878 163.286 0.236025 168.152 0.229667C183.396 0.21019 198.64 0.196404 213.884 0.190894C231.444 0.184512 249.003 0.159511 266.562 0.118201C280.161 0.0873266 293.759 0.0730086 307.357 0.0711065C315.467 0.0696172 323.577 0.0612923 331.687 0.0357299C339.322 0.0121307 346.957 0.00921922 354.592 0.0216745C357.381 0.0227668 360.17 0.0166596 362.959 0.00249184C397.121 -0.160744 424.823 7.66871 450.325 31.5327C474.485 57.7171 479.892 89.2102 479.842 123.725C479.848 126.51 479.855 129.296 479.864 132.081C479.883 139.612 479.884 147.143 479.88 154.673C479.878 160.981 479.885 167.289 479.892 173.596C479.908 188.493 479.908 203.389 479.9 218.285C479.891 233.6 479.909 248.914 479.939 264.229C479.964 277.421 479.972 290.614 479.967 303.806C479.965 311.666 479.968 319.525 479.988 327.385C480.006 334.786 480.003 342.186 479.985 349.588C479.981 352.285 479.985 354.982 479.997 357.68C480.141 393.342 473.768 423.145 448.917 449.873C422.666 475.131 391.815 479.891 356.902 479.84C354.076 479.846 351.25 479.854 348.424 479.862C340.79 479.881 333.155 479.882 325.521 479.879C319.129 479.877 312.736 479.884 306.343 479.891C291.251 479.907 276.159 479.907 261.067 479.899C245.542 479.89 230.017 479.908 214.492 479.938C201.121 479.963 187.751 479.972 174.381 479.967C166.414 479.964 158.447 479.968 150.479 479.988C142.982 480.006 135.484 480.003 127.987 479.985C125.25 479.981 122.514 479.985 119.778 479.997C85.2276 480.135 55.505 472.922 29.9348 447.885C24.5039 442.201 20.1552 436.362 16.1893 429.562C15.4396 428.277 14.69 426.993 13.9176 425.67C4.13279 407.458 0.487797 386.925 0.4929 366.336C0.487723 365.192 0.482549 364.048 0.477215 362.869C0.461801 359.064 0.45628 355.26 0.450895 351.455C0.442064 348.714 0.432703 345.974 0.422856 343.233C0.393335 334.256 0.378645 325.279 0.364607 316.302C0.358903 313.2 0.353103 310.098 0.347214 306.995C0.320408 292.412 0.300369 277.829 0.288622 263.246C0.274882 246.47 0.237868 229.693 0.180902 212.917C0.138279 199.913 0.11757 186.91 0.112921 173.906C0.109628 166.157 0.0972309 158.409 0.06158 150.66C0.0285229 143.357 0.0229416 136.055 0.0373009 128.752C0.037992 126.092 0.0292878 123.432 0.00976667 120.772C-0.136721 99.6028 1.25638 77.2006 11.6129 58.258C12.0958 57.3311 12.5786 56.4041 13.076 55.4491C17.4523 47.3088 22.6719 40.1469 28.8622 33.3144C29.7425 32.3094 30.6229 31.3044 31.5299 30.2689C50.9198 9.28235 78.2466 0.299997 106.029 0.331224Z" fill="#18181B"></path>
<path d="M88.4531 65.2904C88.9784 65.2886 89.5037 65.2868 90.0449 65.285C91.8271 65.2798 93.6092 65.2802 95.3913 65.2805C96.6732 65.278 97.955 65.2751 99.2369 65.272C102.777 65.2642 106.316 65.2614 109.856 65.2594C113.667 65.2564 117.478 65.249 121.288 65.2423C130.5 65.2272 139.712 65.2194 148.925 65.2126C153.258 65.2093 157.592 65.2051 161.926 65.2011C176.325 65.1881 190.725 65.1769 205.124 65.1714C208.863 65.1699 212.603 65.1685 216.342 65.167C217.271 65.1666 218.201 65.1662 219.159 65.1658C234.222 65.1595 249.285 65.14 264.349 65.1151C279.8 65.0898 295.251 65.0759 310.703 65.0735C319.384 65.0718 328.065 65.065 336.745 65.0455C344.137 65.0289 351.529 65.0226 358.921 65.0301C362.694 65.0336 366.468 65.0321 370.241 65.0172C373.694 65.0038 377.146 65.0044 380.598 65.0164C381.849 65.0182 383.1 65.0148 384.351 65.0058C386.049 64.9943 387.745 65.0016 389.442 65.0136C390.386 65.0129 391.329 65.0121 392.302 65.0114C395.315 65.4732 396.644 66.4437 398.806 68.4625C399.915 70.5827 399.729 72.3159 399.751 74.6886C399.761 75.6746 399.771 76.6606 399.782 77.6765C399.788 78.7583 399.794 79.8401 399.8 80.9218C399.803 81.4659 399.806 82.0099 399.81 82.5704C399.826 85.4504 399.838 88.3303 399.845 91.2102C399.854 94.1826 399.882 97.1545 399.914 100.127C399.935 102.414 399.942 104.701 399.944 106.989C399.948 108.084 399.958 109.18 399.972 110.275C399.992 111.81 399.989 113.346 399.986 114.881C399.993 116.19 399.993 116.19 400 117.526C399.523 120.385 398.489 121.651 396.4 123.707C394.149 124.783 392.292 124.573 389.772 124.577C388.987 124.58 388.987 124.58 388.186 124.582C386.415 124.588 384.643 124.587 382.872 124.587C381.596 124.589 380.32 124.592 379.044 124.595C375.525 124.603 372.005 124.606 368.486 124.608C364.695 124.611 360.904 124.618 357.114 124.625C347.953 124.64 338.793 124.648 329.632 124.655C325.322 124.658 321.012 124.662 316.702 124.666C302.38 124.679 288.058 124.69 273.737 124.696C270.018 124.697 266.3 124.699 262.582 124.7C261.658 124.701 260.734 124.701 259.781 124.702C244.801 124.708 229.821 124.727 214.84 124.752C199.472 124.778 184.105 124.791 168.737 124.794C160.103 124.796 151.47 124.802 142.836 124.822C135.486 124.839 128.135 124.845 120.784 124.837C117.032 124.834 113.28 124.835 109.527 124.85C106.094 124.864 102.661 124.863 99.2283 124.851C97.9843 124.849 96.7404 124.853 95.4964 124.862C93.8086 124.873 92.122 124.866 90.4342 124.854C89.4959 124.854 88.5575 124.855 87.5907 124.856C84.5847 124.393 83.2557 123.418 81.0971 121.405C79.9878 119.283 80.1805 117.553 80.1656 115.179C80.1579 114.193 80.1501 113.207 80.1422 112.191C80.1383 111.109 80.1349 110.027 80.1319 108.946C80.1273 107.839 80.1226 106.732 80.118 105.625C80.1096 103.302 80.1049 100.98 80.1021 98.6571C80.0977 95.6849 80.0784 92.7128 80.0556 89.7406C80.0406 87.4532 80.0365 85.1659 80.0352 82.8785C80.0328 81.783 80.0264 80.6875 80.0158 79.5921C80.0021 78.057 80.0051 76.5217 80.0089 74.9865C80.0059 74.1136 80.003 73.2408 80 72.3415C80.7178 66.6336 82.9542 65.2984 88.4531 65.2904Z" fill="#F5F5F5"></path>
<path d="M186.751 365.409C188.19 365.405 188.19 365.405 189.657 365.4C190.721 365.404 191.786 365.408 192.85 365.413C193.969 365.412 195.089 365.41 196.208 365.408C199.25 365.405 202.292 365.411 205.334 365.418C208.515 365.425 211.696 365.424 214.877 365.423C220.219 365.424 225.562 365.431 230.904 365.441C237.083 365.453 243.263 365.457 249.442 365.457C255.383 365.456 261.323 365.46 267.264 365.467C269.794 365.469 272.323 365.471 274.853 365.471C277.832 365.472 280.81 365.477 283.788 365.484C284.883 365.487 285.977 365.487 287.071 365.487C288.562 365.487 290.054 365.491 291.545 365.497C292.798 365.499 292.798 365.499 294.076 365.5C296.144 365.599 296.144 365.599 298.535 366.366C301.624 370.55 301.274 374.924 301.245 379.845C301.248 381.124 301.248 381.124 301.251 382.429C301.253 384.228 301.249 386.027 301.239 387.825C301.226 390.577 301.239 393.328 301.254 396.079C301.252 397.829 301.249 399.579 301.245 401.329C301.249 402.15 301.254 402.972 301.259 403.819C301.188 411.1 301.188 411.1 298.535 413.938C296.007 414.749 294.212 414.806 291.556 414.813C290.599 414.817 289.642 414.822 288.657 414.826C287.606 414.827 286.555 414.828 285.472 414.829C284.355 414.832 283.238 414.836 282.121 414.84C279.085 414.85 276.05 414.855 273.015 414.859C271.118 414.861 269.222 414.864 267.326 414.867C261.393 414.878 255.46 414.885 249.527 414.888C242.678 414.892 235.829 414.905 228.98 414.927C223.686 414.944 218.392 414.952 213.097 414.953C209.935 414.954 206.773 414.958 203.611 414.972C200.637 414.985 197.663 414.986 194.688 414.979C193.077 414.979 191.466 414.989 189.856 415C188.894 414.996 187.933 414.991 186.943 414.987C186.109 414.988 185.275 414.989 184.416 414.99C181.774 414.657 180.279 413.951 178.166 412.403C177.386 410.148 177.26 408.66 177.241 406.309C177.233 405.538 177.225 404.767 177.218 403.973C177.214 403.141 177.211 402.309 177.207 401.452C177.2 400.167 177.2 400.167 177.194 398.857C177.186 397.045 177.181 395.232 177.178 393.42C177.17 390.648 177.145 387.877 177.12 385.105C177.115 383.345 177.111 381.584 177.108 379.824C177.098 378.995 177.088 378.166 177.078 377.312C177.1 370.058 177.1 370.058 179.761 367.134C182.509 365.37 183.515 365.408 186.751 365.409Z" fill="#F5F5F5"></path>
<path d="M186.328 135.248C187.287 135.24 188.246 135.231 189.234 135.222C190.279 135.228 191.324 135.235 192.401 135.241C193.518 135.237 194.635 135.231 195.753 135.225C198.781 135.211 201.81 135.216 204.839 135.226C208.01 135.234 211.182 135.227 214.353 135.222C219.679 135.216 225.005 135.223 230.331 135.238C236.486 135.255 242.641 135.249 248.796 135.232C254.083 135.219 259.37 135.217 264.657 135.225C267.814 135.229 270.97 135.23 274.127 135.22C277.095 135.211 280.062 135.217 283.03 135.235C284.637 135.241 286.244 135.232 287.851 135.222C288.81 135.231 289.769 135.24 290.757 135.248C292.004 135.25 292.004 135.25 293.277 135.252C296.118 135.738 297.458 136.806 299.522 138.707C300.508 140.605 300.437 141.895 300.461 144.018C300.476 145.197 300.476 145.197 300.492 146.401C300.497 147.253 300.503 148.106 300.509 148.985C300.516 149.859 300.522 150.733 300.529 151.634C300.54 153.487 300.548 155.34 300.555 157.193C300.568 160.028 300.603 162.861 300.639 165.695C300.647 167.494 300.653 169.293 300.659 171.092C300.673 171.94 300.687 172.788 300.701 173.662C300.684 179.555 300.684 179.555 298.804 182.576C296.124 184.82 294.572 184.842 291.075 184.852C290.126 184.856 289.177 184.861 288.199 184.865C287.153 184.866 286.106 184.867 285.028 184.868C283.919 184.871 282.81 184.875 281.701 184.879C278.684 184.889 275.667 184.894 272.65 184.898C270.765 184.9 268.88 184.903 266.996 184.907C261.101 184.917 255.205 184.924 249.31 184.927C242.503 184.931 235.695 184.944 228.888 184.967C223.628 184.983 218.368 184.991 213.108 184.992C209.965 184.993 206.823 184.997 203.68 185.011C200.724 185.024 197.767 185.025 194.811 185.018C193.209 185.018 191.608 185.028 190.007 185.039C189.051 185.035 188.096 185.03 187.111 185.026C186.282 185.027 185.453 185.028 184.599 185.029C181.751 184.669 179.607 183.643 177.562 181.675C177.467 180.35 177.427 179.021 177.409 177.692C177.39 176.417 177.39 176.417 177.37 175.116C177.335 171.22 177.302 167.324 177.283 163.428C177.273 161.37 177.251 159.312 177.218 157.254C177.174 154.296 177.157 151.338 177.145 148.379C177.127 147.458 177.109 146.536 177.09 145.586C177.093 144.729 177.095 143.871 177.097 142.988C177.091 142.234 177.084 141.479 177.078 140.702C178.165 136.227 182.015 135.254 186.328 135.248Z" fill="#F5F5F5"></path>
<path d="M186.063 195.431C187.018 195.425 187.972 195.418 188.956 195.411C190.019 195.408 191.082 195.405 192.145 195.402C193.261 195.395 194.376 195.389 195.492 195.383C199.161 195.362 202.83 195.351 206.499 195.34C207.762 195.336 209.025 195.331 210.288 195.327C215.541 195.311 220.794 195.296 226.047 195.288C233.576 195.275 241.105 195.25 248.634 195.206C253.928 195.176 259.221 195.161 264.514 195.157C267.676 195.155 270.837 195.145 273.999 195.12C276.975 195.097 279.95 195.093 282.926 195.102C284.536 195.102 286.145 195.083 287.755 195.064C295.649 195.116 295.649 195.116 298.608 197.243C300.5 199.572 300.945 200.512 300.93 203.423C300.938 204.209 300.945 204.995 300.952 205.805C300.927 207.067 300.927 207.067 300.9 208.353C300.899 209.225 300.898 210.096 300.897 210.993C300.89 212.832 300.871 214.672 300.841 216.511C300.798 219.325 300.792 222.138 300.793 224.952C300.781 226.74 300.767 228.529 300.751 230.317C300.748 231.158 300.746 231.999 300.743 232.865C300.72 234.044 300.72 234.044 300.697 235.247C300.688 235.936 300.678 236.625 300.669 237.334C300.277 239.727 299.454 241.183 297.958 243.121C295.431 243.932 293.633 243.991 290.978 244.001C290.022 244.007 289.065 244.012 288.079 244.018C287.028 244.02 285.977 244.022 284.894 244.024C283.777 244.029 282.66 244.034 281.544 244.039C277.875 244.055 274.206 244.063 270.538 244.071C269.275 244.074 268.012 244.077 266.749 244.08C260.816 244.095 254.883 244.106 248.95 244.112C242.101 244.12 235.252 244.14 228.403 244.171C223.109 244.194 217.815 244.206 212.521 244.208C209.359 244.21 206.197 244.217 203.035 244.236C200.061 244.254 197.087 244.257 194.112 244.249C192.501 244.249 190.89 244.263 189.28 244.279C188.319 244.273 187.357 244.268 186.367 244.262C185.533 244.264 184.699 244.266 183.84 244.268C180.985 243.789 179.641 242.756 177.591 240.819C177.095 238.932 177.095 238.932 177.1 236.798C177.089 235.596 177.089 235.596 177.078 234.37C177.091 233.508 177.104 232.646 177.117 231.759C177.117 230.869 177.117 229.98 177.117 229.064C177.122 227.184 177.136 225.304 177.159 223.424C177.192 220.548 177.191 217.672 177.186 214.796C177.194 212.969 177.205 211.142 177.217 209.316C177.217 208.025 177.217 208.025 177.218 206.709C177.23 205.905 177.243 205.101 177.256 204.273C177.263 203.568 177.269 202.864 177.276 202.138C177.656 199.74 178.521 198.276 179.982 196.317C182.095 195.3 183.696 195.444 186.063 195.431Z" fill="#F5F5F5"></path>
<path d="M186.397 254.167C187.835 254.156 187.835 254.156 189.303 254.144C190.348 254.152 191.393 254.159 192.47 254.167C193.587 254.164 194.705 254.16 195.822 254.154C198.85 254.143 201.879 254.152 204.908 254.165C208.079 254.175 211.251 254.17 214.423 254.168C219.748 254.165 225.074 254.176 230.4 254.194C236.555 254.214 242.71 254.215 248.865 254.206C254.789 254.198 260.713 254.203 266.637 254.214C269.157 254.218 271.676 254.218 274.196 254.214C277.164 254.211 280.131 254.219 283.099 254.235C284.706 254.241 286.313 254.236 287.92 254.231C289.358 254.243 289.358 254.243 290.826 254.254C291.658 254.256 292.489 254.258 293.346 254.26C295.981 254.6 297.482 255.31 299.591 256.853C300.361 259.076 300.498 260.518 300.517 262.831C300.525 263.576 300.532 264.322 300.54 265.089C300.545 266.294 300.545 266.294 300.55 267.523C300.555 268.349 300.559 269.175 300.564 270.026C300.572 271.772 300.577 273.519 300.58 275.266C300.588 277.943 300.612 280.62 300.638 283.298C300.643 284.993 300.647 286.688 300.65 288.384C300.66 289.187 300.67 289.99 300.68 290.818C300.677 291.563 300.675 292.308 300.673 293.076C300.677 294.06 300.677 294.06 300.681 295.063C300.32 297.145 299.726 297.791 297.997 299.054C295.47 299.865 293.672 299.924 291.018 299.934C290.061 299.939 289.104 299.945 288.119 299.951C287.068 299.953 286.017 299.955 284.934 299.957C283.817 299.962 282.7 299.967 281.583 299.972C277.914 299.988 274.246 299.996 270.577 300.004C269.314 300.007 268.051 300.01 266.788 300.013C260.856 300.028 254.923 300.039 248.99 300.045C242.141 300.053 235.292 300.073 228.443 300.104C223.149 300.127 217.856 300.139 212.562 300.141C209.4 300.143 206.238 300.15 203.076 300.169C200.101 300.187 197.127 300.19 194.153 300.182C192.542 300.182 190.931 300.196 189.32 300.211C188.359 300.206 187.398 300.201 186.408 300.195C185.574 300.197 184.74 300.199 183.881 300.201C181.027 299.722 179.683 298.685 177.632 296.752C177.126 294.918 177.126 294.918 177.116 292.86C177.103 292.087 177.091 291.314 177.078 290.517C177.086 289.686 177.094 288.856 177.102 288C177.098 287.143 177.095 286.286 177.091 285.403C177.088 283.592 177.095 281.781 177.112 279.97C177.133 277.196 177.112 274.425 177.087 271.651C177.089 269.891 177.094 268.132 177.102 266.372C177.094 265.542 177.086 264.712 177.078 263.856C177.09 263.083 177.103 262.309 177.116 261.513C177.119 260.833 177.122 260.154 177.126 259.455C178.326 255.105 182.181 254.168 186.397 254.167Z" fill="#F5F5F5"></path>
<path d="M186.463 310.188C187.437 310.18 188.41 310.171 189.413 310.162C190.485 310.168 191.557 310.174 192.629 310.181C193.763 310.177 194.898 310.171 196.032 310.165C199.107 310.151 202.181 310.156 205.256 310.166C208.475 310.173 211.694 310.166 214.913 310.161C220.317 310.156 225.721 310.163 231.125 310.178C237.374 310.195 243.622 310.189 249.87 310.172C255.236 310.158 260.601 310.156 265.967 310.164C269.171 310.169 272.376 310.17 275.58 310.16C278.592 310.151 281.603 310.157 284.615 310.175C285.72 310.179 286.826 310.178 287.931 310.171C289.439 310.162 290.948 310.175 292.456 310.188C293.723 310.19 293.723 310.19 295.014 310.192C297.749 310.675 298.693 311.568 300.389 313.647C300.789 315.423 300.789 315.423 300.789 317.398C300.797 318.141 300.804 318.883 300.812 319.648C300.798 320.844 300.798 320.844 300.785 322.063C300.786 322.886 300.787 323.709 300.788 324.557C300.787 326.296 300.778 328.034 300.761 329.773C300.738 332.436 300.745 335.097 300.755 337.759C300.75 339.449 300.743 341.138 300.735 342.828C300.737 343.625 300.74 344.422 300.742 345.243C300.732 345.985 300.722 346.728 300.711 347.493C300.707 348.145 300.703 348.796 300.698 349.468C300.317 351.659 299.575 352.708 297.998 354.313C295.469 355.124 293.675 355.181 291.018 355.188C290.062 355.192 289.105 355.197 288.119 355.201C287.068 355.202 286.017 355.203 284.934 355.204C283.817 355.207 282.701 355.211 281.584 355.215C278.548 355.225 275.513 355.23 272.478 355.234C270.581 355.236 268.685 355.239 266.789 355.243C260.856 355.253 254.923 355.261 248.991 355.263C242.142 355.267 235.293 355.28 228.444 355.303C223.15 355.319 217.856 355.327 212.562 355.328C209.4 355.329 206.238 355.333 203.076 355.347C200.102 355.36 197.127 355.361 194.153 355.355C192.542 355.354 190.931 355.364 189.32 355.375C188.359 355.371 187.398 355.367 186.408 355.362C185.574 355.363 184.74 355.364 183.881 355.366C181.254 355.034 179.744 354.299 177.632 352.778C177.126 351.037 177.126 351.037 177.116 348.974C177.103 348.2 177.091 347.427 177.078 346.63C177.086 345.796 177.094 344.961 177.102 344.101C177.098 343.243 177.095 342.385 177.091 341.501C177.088 339.686 177.095 337.87 177.112 336.055C177.133 333.274 177.112 330.495 177.087 327.714C177.089 325.952 177.094 324.189 177.102 322.426C177.094 321.593 177.086 320.76 177.078 319.902C177.09 319.126 177.103 318.35 177.116 317.551C177.119 316.87 177.122 316.188 177.126 315.486C178.333 311.1 182.221 310.194 186.463 310.188Z" fill="#F5F5F5"></path>
</svg></svg><style>@media (prefers-color-scheme: light) { :root { filter: none; } }
@media (prefers-color-scheme: dark) { :root { filter: none; } }
</style></svg>